<svg version="1.1" preserveAspectRatio="none" xmlns="http://www.w3.org/2000/svg" width="500" height="500" viewBox="0 0 500 500"><rect width="100%" height="100%" fill="#1C1C1C" fill-opacity="1"/><svg viewBox="195.5021 526.0429 501.1005 439.3306" width="333" height="291.951594141295" x="83.5px" y="104.0242px" xmlns="http://www.w3.org/2000/svg" xmlns:xlink="http://www.w3.org/1999/xlink" preserveAspectRatio="none"><defs></defs><style>.companyName {fill:#EDEDED;fill-opacity:1;}.icon1 {fill:#EDEDED;fill-opacity:1;}.icon2 {fill:#F35F40;fill-opacity:1;}.icon3 {fill:#B2B2B1;fill-opacity:1;}.icon3-str {stroke:#B2B2B1;stroke-opacity:1;}.text {fill:#EDEDED;fill-opacity:1;}</style><g opacity="1" transform="rotate(0 329.1247 526.0429)">
<svg width="233.8552" height="230.9306" x="329.1247" y="526.0429" version="1.1" preserveAspectRatio="none" viewBox="20 21 160 157.99900817871094">
  <g transform="matrix(1 0 0 1 0 0)"><g><path d="M136.535 99.999a181.02 181.02 0 0 1 3.976-4.148c19.535-19.73 39.291-31.105 39.489-31.217l-.474-1.374c-18.263.992-42.469 4.432-60.26 14.78-14.599-22.561-18.32-42.641-18.389-57.04l-.881.004-.874-.004c-.105 21.803-8.109 41.135-18.408 57.029-17.786-10.337-41.974-13.776-60.23-14.768L20 64.633c.196.112 19.927 11.468 39.461 31.189a188.03 188.03 0 0 1 4.004 4.181 183.013 183.013 0 0 1-3.975 4.147c-19.535 19.729-39.291 31.105-39.489 31.216l.478 1.373c18.263-.991 42.465-4.432 60.254-14.778 14.599 22.56 18.318 42.639 18.389 57.038l.808-.004.949.004c.105-21.802 8.109-41.134 18.408-57.028 17.787 10.338 41.977 13.777 60.232 14.768l.48-1.372c-.198-.113-19.955-11.488-39.489-31.216a187.658 187.658 0 0 1-3.975-4.152zm2.959-5.215a185.993 185.993 0 0 0-3.959 4.134 171.253 171.253 0 0 1-7.191-8.361c10.591-9.11 25.557-18.228 46.48-24.45-6.996 4.515-21.223 14.436-35.33 28.677zm-4.965 5.22a173.093 173.093 0 0 0-7.298 8.477 97.283 97.283 0 0 1-8.474-8.479 97.281 97.281 0 0 1 8.48-8.485 173.208 173.208 0 0 0 7.292 8.487zm38.162-34.79c-20.228 6.262-34.835 15.225-45.27 24.193a149.214 149.214 0 0 1-7.346-10.132c15.371-8.923 35.671-12.624 52.616-14.061zm-46.365 25.148a98.785 98.785 0 0 0-8.542 8.517 86.953 86.953 0 0 1-8.418-11.65 48.65 48.65 0 0 1 3.835-3.338 58.865 58.865 0 0 1 5.622-3.871 152.991 152.991 0 0 0 7.503 10.342zm-27.199 9.639c-.136.546-1.525 5.548-7.441 11.644a90.59 90.59 0 0 0-4.6-6.791 91.222 91.222 0 0 0-3.891-4.855 91.2 91.2 0 0 0 3.891-4.854 90.821 90.821 0 0 0 4.585-6.764c5.912 6.088 7.318 11.079 7.456 11.62zM92.497 87c4.483-7.624 6.601-13.902 7.502-17.166.901 3.264 3.019 9.542 7.502 17.166-4.577 4.64-6.639 8.719-7.502 10.95-.862-2.231-2.923-6.31-7.502-10.95zM100 102.052c.863 2.231 2.924 6.31 7.502 10.95-4.484 7.625-6.602 13.904-7.502 17.167-.901-3.263-3.018-9.541-7.502-17.167 4.578-4.641 6.64-8.72 7.502-10.95zm.874-2.052c.103-.427 1.443-5.514 7.41-11.694a90.527 90.527 0 0 0 4.63 6.839 91.263 91.263 0 0 0 3.892 4.856 91.2 91.2 0 0 0-3.891 4.854 90.821 90.821 0 0 0-4.585 6.764c-5.908-6.082-7.317-11.069-7.456-11.619zm-.882-69.075c2.04 18.076 9.201 34.224 18.032 47.862a60.074 60.074 0 0 0-5.861 4.049 51.066 51.066 0 0 0-3.572 3.084c-6.176-10.656-7.705-18.669-7.724-18.768l-.867.159-.867-.159c-.036.198-1.596 8.107-7.784 18.714a51.092 51.092 0 0 0-3.511-3.029 60.323 60.323 0 0 0-5.843-4.039c11.668-18.045 16.467-34.54 17.997-47.873zM81.14 80.107c3.894 2.389 6.967 4.826 9.384 7.142a90.485 90.485 0 0 1-8.371 11.561 99.065 99.065 0 0 0-8.464-8.434 151.699 151.699 0 0 0 7.451-10.269zm.041 19.823a97.702 97.702 0 0 1-8.455 8.51 172.908 172.908 0 0 0-7.256-8.442 173.093 173.093 0 0 0 7.298-8.477 97.037 97.037 0 0 1 8.413 8.409zm-1.319-20.589a151.88 151.88 0 0 1-7.296 10.05C62.13 80.427 47.527 71.469 27.305 65.21c25.355 2.129 41.857 7.89 52.557 14.131zM60.506 94.783C46.398 80.541 32.172 70.621 25.177 66.106 46.095 72.325 61.06 81.441 71.65 90.549a172.122 172.122 0 0 1-7.179 8.368 184.186 184.186 0 0 0-3.965-4.134zm0 10.434c1.34-1.358 2.66-2.736 3.959-4.133a171.107 171.107 0 0 1 7.158 8.321c-10.847 9.389-25.824 18.361-46.447 24.491 6.994-4.515 21.221-14.435 35.33-28.679zm-33.207 29.574c20.233-6.262 34.843-15.226 45.281-24.196a149.877 149.877 0 0 1 7.312 10.08c-10.696 6.236-27.204 11.989-52.593 14.116zm46.375-25.153a98.785 98.785 0 0 0 8.542-8.517 87.034 87.034 0 0 1 8.387 11.6c-2.427 2.336-5.523 4.797-9.46 7.208a153.526 153.526 0 0 0-7.469-10.291zm26.333 59.441c-2.039-18.078-9.2-34.227-18.031-47.866a60.074 60.074 0 0 0 5.861-4.049 51.066 51.066 0 0 0 3.572-3.084c6.174 10.655 7.705 18.665 7.723 18.766l.864-.158.87.159c.019-.1 1.549-8.112 7.724-18.767a51.244 51.244 0 0 0 3.571 3.083 60.137 60.137 0 0 0 5.843 4.038c-11.668 18.049-16.467 34.545-17.997 47.878zm18.853-49.184c-3.928-2.409-7.02-4.868-9.447-7.202a87.098 87.098 0 0 1 8.371-11.571 98.745 98.745 0 0 0 8.527 8.504 151.197 151.197 0 0 0-7.451 10.269zm1.279.764a152.259 152.259 0 0 1 7.297-10.05c10.435 8.964 25.038 17.921 45.258 24.18-25.354-2.128-41.855-7.889-52.555-14.13zm8.211-11.207a172.122 172.122 0 0 1 7.179-8.368c1.3 1.398 2.621 2.775 3.964 4.132 14.108 14.241 28.334 24.162 35.329 28.677-20.917-6.218-35.882-15.334-46.472-24.441z" data-color="1" class="icon1"></path></g></g>
</svg>
</g><g opacity="1" transform="rotate(0 195.5021 938.9735)">
<svg width="501.1005" height="26.4" x="195.5021" y="938.9735" version="1.1" preserveAspectRatio="none" viewBox="4.56 -28.24 540.48 28.48">
  <g transform="matrix(1 0 0 1 0 0)" class="text"><path id="id-6izo4zJp18" d="M4.56 0L4.56-28L7.52-28L7.52-2.56L23.20-2.56L23.20 0L4.56 0Z M34.28-2.56L51.12-2.56L51.12 0L31.32 0L31.32-28L50.52-28L50.52-25.44L34.28-25.44L34.28-15.48L48.76-15.48L48.76-12.96L34.28-12.96L34.28-2.56Z M82.20 0L78.84-7.48L63.24-7.48L59.88 0L56.80 0L69.60-28L72.52-28L85.32 0L82.20 0ZM64.32-9.88L77.76-9.88L71.04-24.92L64.32-9.88Z M115.52 0L112.28 0L105.88-9Q104.80-8.88 103.64-8.88L103.64-8.88L96.12-8.88L96.12 0L93.16 0L93.16-28L103.64-28Q109.00-28 112.04-25.44Q115.08-22.88 115.08-18.40L115.08-18.40Q115.08-15.12 113.42-12.86Q111.76-10.60 108.68-9.60L108.68-9.60L115.52 0ZM103.56-11.40Q107.72-11.40 109.92-13.24Q112.12-15.08 112.12-18.40L112.12-18.40Q112.12-21.80 109.92-23.62Q107.72-25.44 103.56-25.44L103.56-25.44L96.12-25.44L96.12-11.40L103.56-11.40Z M145.76-28L148.68-28L148.68 0L146.24 0L128.24-22.72L128.24 0L125.28 0L125.28-28L127.72-28L145.76-5.28L145.76-28Z M182.40 0.24Q179.28 0.24 176.42-0.76Q173.56-1.76 172.00-3.40L172.00-3.40L173.16-5.68Q174.68-4.16 177.20-3.22Q179.72-2.28 182.40-2.28L182.40-2.28Q186.16-2.28 188.04-3.66Q189.92-5.04 189.92-7.24L189.92-7.24Q189.92-8.92 188.90-9.92Q187.88-10.92 186.40-11.46Q184.92-12 182.28-12.64L182.28-12.64Q179.12-13.44 177.24-14.18Q175.36-14.92 174.02-16.44Q172.68-17.96 172.68-20.56L172.68-20.56Q172.68-22.68 173.80-24.42Q174.92-26.16 177.24-27.20Q179.56-28.24 183.00-28.24L183.00-28.24Q185.40-28.24 187.70-27.58Q190.00-26.92 191.68-25.76L191.68-25.76L190.68-23.40Q188.92-24.56 186.92-25.14Q184.92-25.72 183.00-25.72L183.00-25.72Q179.32-25.72 177.46-24.30Q175.60-22.88 175.60-20.64L175.60-20.64Q175.60-18.96 176.62-17.94Q177.64-16.92 179.18-16.38Q180.72-15.84 183.32-15.20L183.32-15.20Q186.40-14.44 188.30-13.70Q190.20-12.96 191.52-11.46Q192.84-9.96 192.84-7.40L192.84-7.40Q192.84-5.28 191.70-3.54Q190.56-1.80 188.20-0.78Q185.84 0.24 182.40 0.24L182.40 0.24Z M214.72 0.24Q210.56 0.24 207.18-1.62Q203.80-3.48 201.90-6.72Q200.00-9.96 200.00-14L200.00-14Q200.00-18.04 201.90-21.28Q203.80-24.52 207.18-26.38Q210.56-28.24 214.72-28.24L214.72-28.24Q218.88-28.24 222.22-26.40Q225.56-24.56 227.48-21.30Q229.40-18.04 229.40-14L229.40-14Q229.40-9.96 227.48-6.70Q225.56-3.44 222.22-1.60Q218.88 0.24 214.72 0.24L214.72 0.24ZM214.72-2.40Q218.04-2.40 220.72-3.90Q223.40-5.40 224.92-8.06Q226.44-10.72 226.44-14L226.44-14Q226.44-17.28 224.92-19.94Q223.40-22.60 220.72-24.10Q218.04-25.60 214.72-25.60L214.72-25.60Q211.40-25.60 208.70-24.10Q206.00-22.60 204.46-19.94Q202.92-17.28 202.92-14L202.92-14Q202.92-10.72 204.46-8.06Q206.00-5.40 208.70-3.90Q211.40-2.40 214.72-2.40L214.72-2.40Z M265.88-28L268.32-28L268.32 0L265.48 0L265.48-22.40L254.48-3.56L253.08-3.56L242.08-22.28L242.08 0L239.24 0L239.24-28L241.68-28L253.84-7.24L265.88-28Z M286.08 0L286.08-25.44L276.24-25.44L276.24-28L298.88-28L298.88-25.44L289.04-25.44L289.04 0L286.08 0Z M327.28-28L330.20-28L330.20 0L327.28 0L327.28-12.92L309.76-12.92L309.76 0L306.80 0L306.80-28L309.76-28L309.76-15.52L327.28-15.52L327.28-28Z M342.52 0L342.52-28L345.48-28L345.48 0L342.52 0Z M378.28-28L381.20-28L381.20 0L378.76 0L360.76-22.72L360.76 0L357.80 0L357.80-28L360.24-28L378.28-5.28L378.28-28Z M413.24-4.56L413.24-14L416.08-14L416.08-3.32Q414.12-1.60 411.44-0.68Q408.76 0.24 405.80 0.24L405.80 0.24Q401.60 0.24 398.24-1.60Q394.88-3.44 392.96-6.70Q391.04-9.96 391.04-14L391.04-14Q391.04-18.04 392.96-21.30Q394.88-24.56 398.24-26.40Q401.60-28.24 405.84-28.24L405.84-28.24Q409.04-28.24 411.72-27.22Q414.40-26.20 416.24-24.20L416.24-24.20L414.40-22.32Q411.08-25.60 405.96-25.60L405.96-25.60Q402.56-25.60 399.82-24.10Q397.08-22.60 395.52-19.94Q393.96-17.28 393.96-14L393.96-14Q393.96-10.72 395.52-8.08Q397.08-5.44 399.80-3.92Q402.52-2.40 405.92-2.40L405.92-2.40Q410.24-2.40 413.24-4.56L413.24-4.56Z M461.80-28L464.72-28L464.72 0L462.28 0L444.28-22.72L444.28 0L441.32 0L441.32-28L443.76-28L461.80-5.28L461.80-28Z M480.00-2.56L496.84-2.56L496.84 0L477.04 0L477.04-28L496.24-28L496.24-25.44L480.00-25.44L480.00-15.48L494.48-15.48L494.48-12.96L480.00-12.96L480.00-2.56Z M542.20-28L545.04-28L535.60 0L532.48 0L524.28-23.88L516.04 0L512.96 0L503.52-28L506.56-28L514.64-3.92L523.00-28L525.76-28L534.00-3.80L542.20-28Z"/></g>
</svg>
</g><g opacity="1" transform="rotate(0 251.173 796.9735)">
<svg width="389.7587" height="120" x="251.173" y="796.9735" version="1.1" preserveAspectRatio="none" viewBox="0.52 -34.36 111.60000000000001 34.36">
  <g transform="matrix(1 0 0 1 0 0)" class="companyName"><path id="id-D6z1nYkh5" d="M12.60 0L4.20 0L0.52-34.36L7.24-34.36L9.16-12.68L11.08-34.36L17.48-34.36L19.32-12.68L21.16-34.36L27.96-34.36L24.20 0L15.96 0L14.24-16.56L12.60 0Z M47 0L32.80 0L32.80-34.36L46.56-34.36L46.56-27.72L39.80-27.72L39.80-21.04L46.28-21.04L46.28-14.56L39.80-14.56L39.80-6.68L47-6.68L47 0Z M52.08 0L52.08-34.36L61.40-34.36Q65.16-34.36 66.86-32.52Q68.56-30.68 68.56-26.52L68.56-26.52L68.56-25Q68.56-20.08 65.04-19.12L65.04-19.12Q67.20-18.56 68.08-16.52Q68.96-14.48 68.96-11.12L68.96-11.12Q68.96-5.64 67.32-2.82Q65.68 0 61.40 0L61.40 0L52.08 0ZM58.80-21.44L60.20-21.44Q61.08-21.44 61.40-22.10Q61.72-22.76 61.72-23.96L61.72-23.96L61.72-27.40Q61.72-29.08 60.24-29.08L60.24-29.08L58.80-29.08L58.80-21.44ZM59.48-6.04Q62.16-6.04 62.16-8.60L62.16-8.60L62.16-12.88Q62.16-14.44 61.70-15.24Q61.24-16.04 60.08-16.04L60.08-16.04L58.80-16.04L58.80-6.08L59.48-6.04Z M74.04 0L74.04-34.36L83.36-34.36Q87.12-34.36 88.82-32.52Q90.52-30.68 90.52-26.52L90.52-26.52L90.52-25Q90.52-20.08 87-19.12L87-19.12Q89.16-18.56 90.04-16.52Q90.92-14.48 90.92-11.12L90.92-11.12Q90.92-5.64 89.28-2.82Q87.64 0 83.36 0L83.36 0L74.04 0ZM80.76-21.44L82.16-21.44Q83.04-21.44 83.36-22.10Q83.68-22.76 83.68-23.96L83.68-23.96L83.68-27.40Q83.68-29.08 82.20-29.08L82.20-29.08L80.76-29.08L80.76-21.44ZM81.44-6.04Q84.12-6.04 84.12-8.60L84.12-8.60L84.12-12.88Q84.12-14.44 83.66-15.24Q83.20-16.04 82.04-16.04L82.04-16.04L80.76-16.04L80.76-6.08L81.44-6.04Z M106.64 0L100.16 0L100.16-11.32L94.68-34.36L101.48-34.36L103.40-22.72L105.32-34.36L112.12-34.36L106.64-11.32L106.64 0Z"/></g>
</svg>
</g></svg></svg>